<svg width="151" height="56" viewBox="0 0 151 56" fill="none" xmlns="http://www.w3.org/2000/svg">
<g clip-path="url(#clip0_8_149)">
<path d="M30.5 11.676L19.892 0L0 22.16H21.088L30.5 11.676Z" fill="url(#paint0_linear_8_149)"/>
<path d="M10.604 33.8401L1.19199 44.3201L11.8 56.0001L31.692 33.8401H10.604Z" fill="url(#paint1_linear_8_149)"/>
<path d="M10.604 33.8399L20.356 22.9719L21.088 22.1599H0L10.604 33.8399Z" fill="url(#paint2_linear_8_149)"/>
<path d="M10.604 33.8399H31.692L21.088 22.1599L20.356 22.9719L10.604 33.8399Z" fill="url(#paint3_linear_8_149)"/>
</g>
<path d="M46.642 33.5H44.392L48.4886 21.8636H51.0909L55.1932 33.5H52.9432L49.8352 24.25H49.7443L46.642 33.5ZM46.7159 28.9375H52.8523V30.6307H46.7159V28.9375ZM56.6974 33.5V24.7727H58.7543V33.5H56.6974ZM57.7315 23.5341C57.4058 23.5341 57.1255 23.4261 56.8906 23.2102C56.6558 22.9905 56.5384 22.7273 56.5384 22.4205C56.5384 22.1098 56.6558 21.8466 56.8906 21.6307C57.1255 21.411 57.4058 21.3011 57.7315 21.3011C58.0611 21.3011 58.3414 21.411 58.5724 21.6307C58.8073 21.8466 58.9247 22.1098 58.9247 22.4205C58.9247 22.7273 58.8073 22.9905 58.5724 23.2102C58.3414 23.4261 58.0611 23.5341 57.7315 23.5341ZM60.8693 33.5V24.7727H62.8636V26.2273H62.9545C63.1136 25.7235 63.3864 25.3352 63.7727 25.0625C64.1629 24.786 64.608 24.6477 65.108 24.6477C65.2216 24.6477 65.3485 24.6534 65.4886 24.6648C65.6326 24.6723 65.7519 24.6856 65.8466 24.7045V26.5966C65.7595 26.5663 65.6212 26.5398 65.4318 26.517C65.2462 26.4905 65.0663 26.4773 64.892 26.4773C64.517 26.4773 64.1799 26.5587 63.8807 26.7216C63.5852 26.8807 63.3523 27.1023 63.1818 27.3864C63.0114 27.6705 62.9261 27.9981 62.9261 28.3693V33.5H60.8693ZM72.0398 24.7727V26.3636H67.0227V24.7727H72.0398ZM68.2614 22.6818H70.3182V30.875C70.3182 31.1515 70.3598 31.3636 70.4432 31.5114C70.5303 31.6553 70.6439 31.7538 70.7841 31.8068C70.9242 31.8598 71.0795 31.8864 71.25 31.8864C71.3788 31.8864 71.4962 31.8769 71.6023 31.858C71.7121 31.839 71.7955 31.822 71.8523 31.8068L72.1989 33.4148C72.089 33.4527 71.9318 33.4943 71.7273 33.5398C71.5265 33.5852 71.2803 33.6117 70.9886 33.6193C70.4735 33.6345 70.0095 33.5568 69.5966 33.3864C69.1837 33.2121 68.8561 32.9432 68.6136 32.5795C68.375 32.2159 68.2576 31.7614 68.2614 31.2159V22.6818ZM73.7599 33.5V24.7727H75.8168V33.5H73.7599ZM74.794 23.5341C74.4683 23.5341 74.188 23.4261 73.9531 23.2102C73.7183 22.9905 73.6009 22.7273 73.6009 22.4205C73.6009 22.1098 73.7183 21.8466 73.9531 21.6307C74.188 21.411 74.4683 21.3011 74.794 21.3011C75.1236 21.3011 75.4039 21.411 75.6349 21.6307C75.8698 21.8466 75.9872 22.1098 75.9872 22.4205C75.9872 22.7273 75.8698 22.9905 75.6349 23.2102C75.4039 23.4261 75.1236 23.5341 74.794 23.5341ZM77.9318 33.5V24.7727H79.8977V26.2557H80C80.1818 25.7557 80.483 25.3655 80.9034 25.0852C81.3239 24.8011 81.8258 24.6591 82.4091 24.6591C83 24.6591 83.4981 24.803 83.9034 25.0909C84.3125 25.375 84.6004 25.7633 84.767 26.2557H84.858C85.0511 25.7708 85.3769 25.3845 85.8352 25.0966C86.2973 24.8049 86.8447 24.6591 87.4773 24.6591C88.2803 24.6591 88.9356 24.9129 89.4432 25.4205C89.9508 25.928 90.2045 26.6686 90.2045 27.642V33.5H88.142V27.9602C88.142 27.4186 87.9981 27.0227 87.7102 26.7727C87.4223 26.5189 87.0701 26.392 86.6534 26.392C86.1572 26.392 85.7689 26.5473 85.4886 26.858C85.2121 27.1648 85.0739 27.5644 85.0739 28.0568V33.5H83.0568V27.875C83.0568 27.4242 82.9205 27.0644 82.6477 26.7955C82.3788 26.5265 82.0265 26.392 81.5909 26.392C81.2955 26.392 81.0265 26.4678 80.7841 26.6193C80.5417 26.767 80.3485 26.9773 80.2045 27.25C80.0606 27.5189 79.9886 27.8333 79.9886 28.1932V33.5H77.9318ZM96.1548 33.6705C95.2798 33.6705 94.5241 33.4886 93.8878 33.125C93.2552 32.7576 92.7685 32.2386 92.4276 31.5682C92.0866 30.8939 91.9162 30.1004 91.9162 29.1875C91.9162 28.2898 92.0866 27.5019 92.4276 26.8239C92.7723 26.142 93.2533 25.6117 93.8707 25.233C94.4882 24.8504 95.2135 24.6591 96.0469 24.6591C96.5848 24.6591 97.0923 24.7462 97.5696 24.9205C98.0507 25.0909 98.4749 25.3561 98.8423 25.7159C99.2135 26.0758 99.5052 26.5341 99.7173 27.0909C99.9295 27.6439 100.036 28.303 100.036 29.0682V29.6989H92.8821V28.3125H98.0639C98.0601 27.9186 97.9749 27.5682 97.8082 27.2614C97.6416 26.9508 97.4086 26.7064 97.1094 26.5284C96.8139 26.3504 96.4692 26.2614 96.0753 26.2614C95.6548 26.2614 95.2855 26.3636 94.9673 26.5682C94.6491 26.7689 94.401 27.0341 94.223 27.3636C94.0488 27.6894 93.9598 28.0473 93.956 28.4375V29.6477C93.956 30.1553 94.0488 30.5909 94.2344 30.9545C94.42 31.3144 94.6795 31.5909 95.0128 31.7841C95.3461 31.9735 95.7363 32.0682 96.1832 32.0682C96.4825 32.0682 96.7533 32.0265 96.9957 31.9432C97.2382 31.8561 97.4484 31.7292 97.6264 31.5625C97.8045 31.3958 97.9389 31.1894 98.0298 30.9432L99.9503 31.1591C99.8291 31.6667 99.598 32.1098 99.2571 32.4886C98.92 32.8636 98.4882 33.1553 97.9616 33.3636C97.4351 33.5682 96.8329 33.6705 96.1548 33.6705Z" fill="#DE3D6D"/>
<path d="M101.753 33.5V31.9773L105.793 28.017C106.179 27.6269 106.501 27.2803 106.759 26.9773C107.016 26.6742 107.209 26.3807 107.338 26.0966C107.467 25.8125 107.531 25.5095 107.531 25.1875C107.531 24.8201 107.448 24.5057 107.281 24.2443C107.115 23.9792 106.885 23.7746 106.594 23.6307C106.302 23.4867 105.971 23.4148 105.599 23.4148C105.217 23.4148 104.882 23.4943 104.594 23.6534C104.306 23.8087 104.082 24.0303 103.923 24.3182C103.768 24.6061 103.69 24.9489 103.69 25.3466H101.685C101.685 24.608 101.853 23.9659 102.19 23.4205C102.527 22.875 102.991 22.4527 103.582 22.1534C104.177 21.8542 104.859 21.7045 105.628 21.7045C106.408 21.7045 107.094 21.8504 107.685 22.142C108.276 22.4337 108.734 22.8333 109.06 23.3409C109.389 23.8485 109.554 24.428 109.554 25.0795C109.554 25.5152 109.471 25.9432 109.304 26.3636C109.137 26.7841 108.844 27.25 108.423 27.7614C108.007 28.2727 107.421 28.892 106.668 29.6193L104.662 31.6591V31.7386H109.73V33.5H101.753ZM121.764 25.7898H119.639C119.579 25.4413 119.467 25.1326 119.304 24.8636C119.141 24.5909 118.938 24.3598 118.696 24.1705C118.454 23.9811 118.177 23.839 117.866 23.7443C117.56 23.6458 117.228 23.5966 116.872 23.5966C116.24 23.5966 115.679 23.7557 115.19 24.0739C114.702 24.3883 114.319 24.8504 114.043 25.4602C113.766 26.0663 113.628 26.8068 113.628 27.6818C113.628 28.572 113.766 29.322 114.043 29.9318C114.323 30.5379 114.705 30.9962 115.19 31.3068C115.679 31.6136 116.238 31.767 116.866 31.767C117.215 31.767 117.541 31.7216 117.844 31.6307C118.151 31.536 118.425 31.3977 118.668 31.2159C118.914 31.0341 119.12 30.8106 119.287 30.5455C119.457 30.2803 119.575 29.9773 119.639 29.6364L121.764 29.6477C121.685 30.2008 121.512 30.7197 121.247 31.2045C120.986 31.6894 120.643 32.1174 120.219 32.4886C119.795 32.8561 119.298 33.1439 118.73 33.3523C118.162 33.5568 117.531 33.6591 116.838 33.6591C115.815 33.6591 114.902 33.4223 114.099 32.9489C113.296 32.4754 112.664 31.7917 112.202 30.8977C111.74 30.0038 111.509 28.9318 111.509 27.6818C111.509 26.428 111.741 25.3561 112.207 24.4659C112.673 23.572 113.308 22.8883 114.111 22.4148C114.914 21.9413 115.823 21.7045 116.838 21.7045C117.486 21.7045 118.088 21.7955 118.645 21.9773C119.202 22.1591 119.698 22.4261 120.134 22.7784C120.569 23.1269 120.927 23.5549 121.207 24.0625C121.491 24.5663 121.677 25.142 121.764 25.7898ZM126.115 33.6761C125.562 33.6761 125.064 33.5777 124.621 33.3807C124.181 33.1799 123.833 32.8845 123.575 32.4943C123.321 32.1042 123.195 31.6231 123.195 31.0511C123.195 30.5587 123.286 30.1515 123.467 29.8295C123.649 29.5076 123.897 29.25 124.212 29.0568C124.526 28.8636 124.88 28.7178 125.274 28.6193C125.672 28.517 126.083 28.4432 126.507 28.3977C127.018 28.3447 127.433 28.2973 127.751 28.2557C128.07 28.2102 128.301 28.142 128.445 28.0511C128.592 27.9564 128.666 27.8106 128.666 27.6136V27.5795C128.666 27.1515 128.539 26.8201 128.286 26.5852C128.032 26.3504 127.666 26.233 127.189 26.233C126.685 26.233 126.286 26.3428 125.99 26.5625C125.698 26.7822 125.501 27.0417 125.399 27.3409L123.479 27.0682C123.63 26.5379 123.88 26.0947 124.229 25.7386C124.577 25.3788 125.003 25.1098 125.507 24.9318C126.011 24.75 126.568 24.6591 127.178 24.6591C127.598 24.6591 128.017 24.7083 128.433 24.8068C128.85 24.9053 129.231 25.0682 129.575 25.2955C129.92 25.5189 130.196 25.8239 130.405 26.2102C130.617 26.5966 130.723 27.0795 130.723 27.6591V33.5H128.746V32.3011H128.678C128.553 32.5436 128.376 32.7708 128.149 32.983C127.926 33.1913 127.643 33.3598 127.303 33.4886C126.965 33.6136 126.57 33.6761 126.115 33.6761ZM126.649 32.1648C127.062 32.1648 127.42 32.0833 127.723 31.9205C128.026 31.7538 128.259 31.5341 128.422 31.2614C128.589 30.9886 128.672 30.6913 128.672 30.3693V29.3409C128.607 29.3939 128.498 29.4432 128.342 29.4886C128.191 29.5341 128.02 29.5739 127.831 29.608C127.642 29.642 127.454 29.6723 127.268 29.6989C127.083 29.7254 126.922 29.7481 126.786 29.767C126.479 29.8087 126.204 29.8769 125.962 29.9716C125.719 30.0663 125.528 30.1989 125.388 30.3693C125.248 30.536 125.178 30.7519 125.178 31.017C125.178 31.3958 125.316 31.6818 125.592 31.875C125.869 32.0682 126.221 32.1648 126.649 32.1648ZM139.689 27.0795L137.814 27.2841C137.761 27.0947 137.668 26.9167 137.536 26.75C137.407 26.5833 137.232 26.4489 137.013 26.3466C136.793 26.2443 136.524 26.1932 136.206 26.1932C135.778 26.1932 135.418 26.286 135.126 26.4716C134.839 26.6572 134.696 26.8977 134.7 27.1932C134.696 27.447 134.789 27.6534 134.979 27.8125C135.172 27.9716 135.49 28.1023 135.933 28.2045L137.422 28.5227C138.248 28.7008 138.861 28.983 139.263 29.3693C139.668 29.7557 139.873 30.2614 139.876 30.8864C139.873 31.4356 139.712 31.9205 139.393 32.3409C139.079 32.7576 138.642 33.0833 138.081 33.3182C137.52 33.553 136.876 33.6705 136.149 33.6705C135.081 33.6705 134.221 33.447 133.57 33C132.918 32.5492 132.53 31.9223 132.405 31.1193L134.411 30.9261C134.501 31.3201 134.695 31.6174 134.99 31.8182C135.286 32.0189 135.67 32.1193 136.143 32.1193C136.632 32.1193 137.024 32.0189 137.32 31.8182C137.619 31.6174 137.768 31.3693 137.768 31.0739C137.768 30.8239 137.672 30.6174 137.479 30.4545C137.289 30.2917 136.994 30.1667 136.592 30.0795L135.104 29.767C134.267 29.5928 133.647 29.2992 133.246 28.8864C132.844 28.4697 132.645 27.9432 132.649 27.3068C132.645 26.7689 132.791 26.303 133.087 25.9091C133.386 25.5114 133.801 25.2045 134.331 24.9886C134.865 24.7689 135.481 24.6591 136.178 24.6591C137.2 24.6591 138.005 24.8769 138.592 25.3125C139.183 25.7481 139.549 26.3371 139.689 27.0795ZM143.629 28.3864V33.5H141.572V21.8636H143.584V26.2557H143.686C143.891 25.7633 144.207 25.375 144.635 25.0909C145.067 24.803 145.616 24.6591 146.283 24.6591C146.889 24.6591 147.417 24.786 147.868 25.0398C148.319 25.2936 148.667 25.6648 148.913 26.1534C149.163 26.642 149.288 27.2386 149.288 27.9432V33.5H147.232V28.2614C147.232 27.6742 147.08 27.2178 146.777 26.892C146.478 26.5625 146.057 26.3977 145.516 26.3977C145.152 26.3977 144.826 26.4773 144.538 26.6364C144.254 26.7917 144.031 27.017 143.868 27.3125C143.709 27.608 143.629 27.9659 143.629 28.3864Z" fill="#F5844C"/>
<defs>
<linearGradient id="paint0_linear_8_149" x1="25.544" y1="6.356" x2="3.91999" y2="26.572" gradientUnits="userSpaceOnUse">
<stop stop-color="#FFE770"/>
<stop offset="1" stop-color="#FFAA4F"/>
</linearGradient>
<linearGradient id="paint1_linear_8_149" x1="5.976" y1="49.7401" x2="27.768" y2="29.6361" gradientUnits="userSpaceOnUse">
<stop stop-color="#F55684"/>
<stop offset="1" stop-color="#CF2D5D"/>
</linearGradient>
<linearGradient id="paint2_linear_8_149" x1="5.304" y1="27.9959" x2="17.248" y2="17.4639" gradientUnits="userSpaceOnUse">
<stop stop-color="#F0764A"/>
<stop offset="1" stop-color="#FFAA4F"/>
</linearGradient>
<linearGradient id="paint3_linear_8_149" x1="26.38" y1="28.0079" x2="15.004" y2="38.3479" gradientUnits="userSpaceOnUse">
<stop stop-color="#911C4B"/>
<stop offset="1" stop-color="#CF2D5D"/>
</linearGradient>
<clipPath id="clip0_8_149">
<rect width="32" height="56" fill="white"/>
</clipPath>
</defs>
</svg>
